<?xml version="1.0" encoding="utf-8"?>
<!-- Generator: Adobe Illustrator 25.4.1, SVG Export Plug-In . SVG Version: 6.00 Build 0)  -->
<svg version="1.1" id="Layer_1" xmlns="http://www.w3.org/2000/svg" xmlns:xlink="http://www.w3.org/1999/xlink" x="0px" y="0px"
	 viewBox="0 0 114 114" style="enable-background:new 0 0 114 114;" xml:space="preserve">
<style type="text/css">
	.st0{fill:#32305D;}
	.st1{fill:#FFBA00;}
	.st2{fill:#FF9400;}
	.st3{fill:#FF7100;}
</style>
<g>
	<g transform="translate(-131 -50)">
		<g transform="translate(143.687 50.004)">
			<path class="st0" d="M88.3,83.4l-15-60c-1.4-5.5-7-8.9-12.5-7.5c0,0,0,0,0,0l-30,7.5c-1.7,0.4-3.3,1.3-4.6,2.5
				c-1.4,1.3-2.3,2.9-2.8,4.7c-0.2,0.8-0.3,1.7-0.4,2.5c0,0.9,0.1,1.9,0.3,2.7l19.2,77.1c0.2,0.7,0.9,1.2,1.7,1
				c0.3-0.1,0.6-0.3,0.8-0.5l7.3-10.4l28.5-7.1C86.3,94.5,89.7,88.9,88.3,83.4C88.3,83.4,88.3,83.4,88.3,83.4L88.3,83.4z M72.6,81.5
				c0,6.7-3.6,10-11.1,10H50.1c-2,0.1-4.1-0.3-6-1c-0.3-0.1-0.6-0.4-0.7-0.8l-4.3-17h11.2l2.4,9.6c0.1,0.5,0.6,0.9,1.1,0.9h4
				c0.9,0.1,1.9-0.1,2.7-0.7c0.6-0.7,0.9-1.7,0.8-2.7V65.5c0.1-1-0.2-1.9-0.8-2.7c-0.8-0.6-1.7-0.8-2.7-0.7h-8.6
				c-7,0-10.4-3.3-10.4-10.1V35.5c0-6.7,3.6-10,11-10h11.7c2-0.1,3.9,0.3,5.8,1c0.3,0.1,0.6,0.4,0.7,0.8l3.8,15.4H60.5l-1.8-7.4
				c-0.2-0.8-1-1.4-1.8-1.4h-3.2c-1-0.1-2,0.1-2.8,0.7c-0.6,0.7-0.9,1.7-0.8,2.7v13.5c-0.1,1,0.2,1.9,0.8,2.7
				c0.8,0.6,1.8,0.8,2.8,0.7H62c7.2,0,10.7,3.2,10.7,9.9V81.5z"/>
			<path class="st1" d="M0,38.8l16-4l1.3,5.3l-16,4L0,38.8z"/>
			<path class="st2" d="M5.9,13.6L20,22.1l-2.8,4.7L3.1,18.4L5.9,13.6z"/>
			<path class="st3" d="M27.9,0l4,16l-5.3,1.3l-4-16L27.9,0z"/>
		</g>
	</g>
</g>
</svg>
